<?xml version="1.0" encoding="utf-8"?>
<!-- Generator: Adobe Illustrator 15.0.0, SVG Export Plug-In . SVG Version: 6.00 Build 0)  -->
<!DOCTYPE svg PUBLIC "-//W3C//DTD SVG 1.1//EN" "http://www.w3.org/Graphics/SVG/1.1/DTD/svg11.dtd">
<svg version="1.1" id="Layer_1" xmlns="http://www.w3.org/2000/svg" xmlns:xlink="http://www.w3.org/1999/xlink" x="0px" y="0px"
	 width="26px" height="26px" viewBox="0 0 26 26" enable-background="new 0 0 26 26" xml:space="preserve">
<path opacity="0.3" fill="#FFFFFF" d="M26,22c0,2.209-1.791,4-4,4H4c-2.209,0-4-1.791-4-4V4c0-2.209,1.791-4,4-4h18
	c2.209,0,4,1.791,4,4V22z"/>
<path fill="#FFFFFF" d="M16,20.688C16,21.965,14.965,23,13.688,23h-0.375C12.035,23,11,21.965,11,20.688v-8.375
	C11,11.035,12.035,10,13.313,10h0.375C14.965,10,16,11.035,16,12.313V20.688z"/>
<circle fill="#FFFFFF" cx="13.563" cy="5.688" r="2.563"/>
</svg>
