<?xml version="1.0" encoding="utf-8"?>
<!-- Generator: Adobe Illustrator 15.0.0, SVG Export Plug-In . SVG Version: 6.00 Build 0)  -->
<!DOCTYPE svg PUBLIC "-//W3C//DTD SVG 1.1//EN" "http://www.w3.org/Graphics/SVG/1.1/DTD/svg11.dtd">
<svg version="1.1" id="Layer_1" xmlns="http://www.w3.org/2000/svg" xmlns:xlink="http://www.w3.org/1999/xlink" x="0px" y="0px"
	 width="15px" height="15px" viewBox="0 0 15 15" enable-background="new 0 0 15 15" xml:space="preserve">
<g>
	<g>
		<path fill="#4990CD" d="M6.758,8.226H0.76c-0.396,0-0.731-0.339-0.731-0.739c0-0.4,0.335-0.739,0.731-0.739h5.998V0.772
			c0-0.43,0.335-0.769,0.761-0.769s0.76,0.339,0.76,0.769v5.975h5.999c0.396,0,0.731,0.339,0.731,0.739
			c0,0.4-0.335,0.739-0.731,0.739H8.279V14.2c0,0.431-0.334,0.77-0.76,0.77s-0.761-0.339-0.761-0.77V8.226z"/>
	</g>
</g>
<ellipse fill="none" stroke="#4990CD" stroke-miterlimit="10" cx="7.537" cy="7.342" rx="5.06" ry="5.118"/>
</svg>
