<?xml version="1.0" encoding="utf-8"?>
<!-- Generator: Adobe Illustrator 15.0.0, SVG Export Plug-In . SVG Version: 6.00 Build 0)  -->
<!DOCTYPE svg PUBLIC "-//W3C//DTD SVG 1.1//EN" "http://www.w3.org/Graphics/SVG/1.1/DTD/svg11.dtd">
<svg version="1.1" id="Layer_1" xmlns="http://www.w3.org/2000/svg" xmlns:xlink="http://www.w3.org/1999/xlink" x="0px" y="0px"
	 width="15px" height="23px" viewBox="0 0 15 23" enable-background="new 0 0 15 23" xml:space="preserve">
<g id="XMLID_1_">
	<g>
		<path fill="#FFFFFF" d="M10.187,9.279c2.759,1.028,4.718,3.598,4.718,6.615c0,3.917-3.322,7.094-7.414,7.094
			c-4.104,0-7.418-3.177-7.418-7.094c0-3.93,3.313-7.103,7.418-7.103C8.443,8.792,9.351,8.965,10.187,9.279z M4.406,15.886
			c0,1.692,1.377,3.062,3.085,3.062c1.699,0,3.081-1.369,3.081-3.062c0-1.684-1.382-3.053-3.081-3.053
			C5.783,12.833,4.406,14.202,4.406,15.886z"/>
		<path fill="#4B68B1" d="M7.491,18.947c-1.708,0-3.085-1.369-3.085-3.062c0-1.684,1.377-3.053,3.085-3.053
			c1.699,0,3.081,1.369,3.081,3.053C10.571,17.578,9.189,18.947,7.491,18.947z"/>
		<path fill="#FFFFFF" d="M10.187,5.611c-0.004-3.452,1.217-5.631,4.749-5.64l-0.031,15.924c0-3.018-1.959-5.587-4.718-6.615V5.611z
			"/>
	</g>
	<g>
	</g>
</g>
</svg>
