<?xml version="1.0" encoding="utf-8"?>
<!-- Generator: Adobe Illustrator 15.0.0, SVG Export Plug-In . SVG Version: 6.00 Build 0)  -->
<!DOCTYPE svg PUBLIC "-//W3C//DTD SVG 1.1//EN" "http://www.w3.org/Graphics/SVG/1.1/DTD/svg11.dtd">
<svg version="1.1" id="Layer_1" xmlns="http://www.w3.org/2000/svg" xmlns:xlink="http://www.w3.org/1999/xlink" x="0px" y="0px"
	 width="15px" height="23px" viewBox="0 0 15 23" enable-background="new 0 0 15 23" xml:space="preserve">
<g id="XMLID_2_">
	<g>
		<path fill="#FFFFFF" d="M4.754,13.667c-2.777-1.029-4.74-3.593-4.74-6.598c0-3.907,3.335-7.075,7.459-7.075
			c4.127,0,7.463,3.168,7.463,7.075c0,3.916-3.336,7.084-7.463,7.084C6.514,14.153,5.596,13.98,4.754,13.667z M10.579,7.073
			c0-1.684-1.392-3.049-3.111-3.049c-1.706,0-3.097,1.366-3.097,3.049c0,1.68,1.391,3.049,3.097,3.049
			C9.188,10.123,10.579,8.753,10.579,7.073z"/>
		<path fill="#FFFFFF" d="M4.754,17.326c0.014,3.438-1.224,5.608-4.771,5.621L0.014,7.069c0,3.005,1.962,5.569,4.74,6.598V17.326z"
			/>
	</g>
	<g>
	</g>
</g>
</svg>
