<?xml version="1.0" encoding="utf-8"?>
<!-- Generator: Adobe Illustrator 15.0.0, SVG Export Plug-In . SVG Version: 6.00 Build 0)  -->
<!DOCTYPE svg PUBLIC "-//W3C//DTD SVG 1.1//EN" "http://www.w3.org/Graphics/SVG/1.1/DTD/svg11.dtd">
<svg version="1.1" id="Layer_1" xmlns="http://www.w3.org/2000/svg" xmlns:xlink="http://www.w3.org/1999/xlink" x="0px" y="0px"
	 width="26px" height="24px" viewBox="0 0 26 24" enable-background="new 0 0 26 24" xml:space="preserve">
<g id="XMLID_21_">
	<g>
		<path fill="#6ABD45" d="M26,0.001v24H12c-6.63,0-12-5.381-12-12c0-3.31,1.34-6.31,3.51-8.49c2.18-2.17,5.18-3.51,8.49-3.51H26z"/>
	</g>
	<g>
	</g>
</g>
<path fill="#FFFFFF" d="M12.583,3.501c0.927-1.24,3.167-0.168,3.249,1.417c-0.207,9.416-2.582,3.582,4.169,4.749
	c1.289,0.251,1.372,2.001-0.439,2.443C21.334,12.667,22.001,14,19.699,15c1.635,0.166,2.468,2.334-0.198,3
	c3.206,2.459-2.378,3.251-7.5,2.666c-2.533-0.289-3.461-0.998-3.96-2.207c-0.513-1.242-1.503-4.498,0.793-6.792
	c1.167-1.167,0.988-0.676,2.247-1.809C13.047,8.088,13.583,6.168,12.583,3.501z"/>
</svg>
