<?xml version="1.0" encoding="utf-8"?>
<!-- Generator: Adobe Illustrator 15.0.0, SVG Export Plug-In . SVG Version: 6.00 Build 0)  -->
<!DOCTYPE svg PUBLIC "-//W3C//DTD SVG 1.1//EN" "http://www.w3.org/Graphics/SVG/1.1/DTD/svg11.dtd">
<svg version="1.1" id="Layer_1" xmlns="http://www.w3.org/2000/svg" xmlns:xlink="http://www.w3.org/1999/xlink" x="0px" y="0px"
	 width="23.06px" height="26.79px" viewBox="0 0 23.06 26.79" enable-background="new 0 0 23.06 26.79" xml:space="preserve">
<g>
	<g id="XMLID_49_">
		<g>
			<polygon fill="#47C8F5" points="14.166,4.99 14.166,1.581 14.166,0 18.178,2.79 14.166,6.819 			"/>
			<path fill="#47C8F5" d="M14.166,1.581v3.41C8.264,5.337,3.671,8.103,3.671,11.469C3.671,6.268,8.283,1.99,14.166,1.581z"/>
		</g>
		<g>
		</g>
	</g>
	<g id="XMLID_24_">
		<g>
			<polygon fill="#47C8F5" points="4.289,14.879 8.301,10.855 8.301,12.684 8.301,16.094 8.301,17.668 			"/>
			<path fill="#47C8F5" d="M8.301,16.094v-3.41c5.901-0.347,10.494-3.119,10.494-6.485C18.795,11.407,14.184,15.685,8.301,16.094z"
				/>
		</g>
		<g>
		</g>
	</g>
	<text transform="matrix(0.9957 0 0 1 0.1152 25.2969)" fill="#47C8F5" font-family="'Helvetica-Light'" font-size="6">re-pheed</text>
</g>
</svg>
