<?xml version="1.0" encoding="utf-8"?>
<!-- Generator: Adobe Illustrator 15.0.0, SVG Export Plug-In . SVG Version: 6.00 Build 0)  -->
<!DOCTYPE svg PUBLIC "-//W3C//DTD SVG 1.1//EN" "http://www.w3.org/Graphics/SVG/1.1/DTD/svg11.dtd">
<svg version="1.1" id="Layer_1" xmlns="http://www.w3.org/2000/svg" xmlns:xlink="http://www.w3.org/1999/xlink" x="0px" y="0px"
	 width="26px" height="24px" viewBox="0 0 26 24" enable-background="new 0 0 26 24" xml:space="preserve">
<g id="XMLID_63_">
	<g>
		<path fill="#ED2224" d="M13.977,0.001c6.62,0,11.98,5.364,11.98,11.987c0,3.307-1.338,6.304-3.504,8.471
			c-2.177,2.168-5.172,3.517-8.476,3.517H0V0.001H13.977z"/>
	</g>
	<g>
	</g>
</g>
<path fill="#FFFFFF" d="M14.384,21.31c-0.934,1.24-3.191,0.168-3.274-1.417c0.208-9.415,2.602-3.582-4.201-4.748
	c-1.299-0.252-1.382-2.002,0.443-2.443c-1.786-0.557-2.458-1.891-0.139-2.891c-1.647-0.167-2.486-2.333,0.2-3
	c-3.23-2.459,2.396-3.251,7.558-2.667c2.553,0.289,3.487,0.999,3.99,2.208c0.516,1.243,1.515,4.498-0.8,6.793
	c-1.176,1.166-0.996,0.676-2.264,1.809C13.917,16.723,13.376,18.643,14.384,21.31z"/>
</svg>
